<svg xmlns="http://www.w3.org/2000/svg" xmlns:xlink="http://www.w3.org/1999/xlink" id="Layer_1" width="100" height="85.712" x="0" y="0" enable-background="new 0 0 100 85.712" version="1.1" viewBox="0 0 100 85.712" xml:space="preserve"><path fill="#010101" d="M95.238,9.523H4.763C2.134,9.523,0,7.389,0,4.763C0,2.134,2.134,0,4.763,0h90.475	C97.868,0,100,2.134,100,4.763C100,7.389,97.868,9.523,95.238,9.523z"/><path fill="#010101" d="M9.525,19.048h71.428c2.628,0,4.763,2.133,4.763,4.762s-2.135,4.76-4.763,4.76H9.525	c-2.629,0-4.762-2.134-4.762-4.76C4.763,21.179,6.896,19.048,9.525,19.048z"/><path fill="#010101" d="M38.095,38.095h52.382c2.628,0,4.761,2.133,4.761,4.76c0,2.627-2.133,4.762-4.761,4.762H38.095	c-2.629,0-4.76-2.135-4.76-4.762C33.335,40.229,35.466,38.095,38.095,38.095z"/><path fill="#010101" d="M42.857,76.19h14.285c2.631,0,4.763,2.133,4.763,4.761c0,2.627-2.132,4.762-4.763,4.762H42.857	c-2.629,0-4.762-2.135-4.762-4.762C38.095,78.323,40.229,76.19,42.857,76.19z"/><path fill="#010101" d="M45.239,61.903c0-2.63,2.133-4.76,4.762-4.76h33.333c2.628,0,4.763,2.135,4.763,4.76	c0,2.63-2.135,4.763-4.763,4.763H50.001C47.372,66.666,45.239,64.533,45.239,61.903z"/></svg>
